# xmcd
#
# Track frame offsets:
# 150
# 15497
# 30137
# 43812
# 57299
# 79169
# 90682
# 100527
# 114324
# 127246
#
# Disc length: 1984 seconds
#
#
# Revision: 0
# Processed by: cddbd v1.4PL0 Copyright (c) Steve Scherf et al.
# Submitted via: FreeRIP 2.30 
#
DISCID=7107be0a
DTITLE=ainara legardon - in the mirror
DYEAR=2003
DGENRE=Death Metal
TTITLE0=in the mirror
TTITLE1=dreaming ´bout you
TTITLE2=this feeling true
TTITLE3=i saw the light on
TTITLE4=forget just anything
TTITLE5=the day
TTITLE6=blue
TTITLE7=love in a box
TTITLE8=on the verge of tears
TTITLE9=14 hours
EXTD=
EXTT0=
EXTT1=
EXTT2=
EXTT3=
EXTT4=
EXTT5=
EXTT6=
EXTT7=
EXTT8=
EXTT9=
PLAYORDER=
